<?xml version="1.0" encoding="utf-8"?>
<!-- Generator: Adobe Illustrator 19.0.0, SVG Export Plug-In . SVG Version: 6.00 Build 0)  -->
<svg version="1.1" id="layer" xmlns="http://www.w3.org/2000/svg" xmlns:xlink="http://www.w3.org/1999/xlink" x="0px" y="0px"
	 viewBox="-153 -46 652 652" style="enable-background:new -153 -46 652 652;" xml:space="preserve">
<style type="text/css">
	.st0{fill:#1D4851;}
	.st1{fill:#FFFFFF;}
</style>
<path id="Path" class="st0" d="M456,262.7l-103.8,147l0,0c-1.1,1.8-2.4,3.6-3.9,5.2c-16.8,20.6-41.2,33.6-67.7,36.1
	c-26.6,2.1-52.9-6.7-72.8-24.5c-6.4-5.8-11.6-11.6-18-17.4l-16.1-16.1l-16.4,16c-5.7,6.1-11.7,11.9-18,17.4
	C99.7,462.1,38.6,459,2.8,419.4c-1.4-1.5-2.7-3.1-4-4.7c-1.3-1.9-2.6-3.2-3.9-5.2l-102.9-146.8c-31.6-43.6-21.9-104.5,21.6-136.1
	c39-28.3,92.8-23.9,126.6,10.4l32.2,32.2L95.8,146l9-9c36.1-36.3,94-38.5,132.8-5.2c3.9,3.2,7.1,7.1,11,10.3l26.4,26.4l32.2-32.2
	c38.9-37.7,101-36.7,138.7,2.2C478.5,172.2,482.7,224.2,456,262.7"/>
<path id="Shape" class="st1" d="M59.7,241.3l-6.4,24.5l-6.4,24.5L39,266.4l-8.4-25.1h-9l-8.4,25.1l-7.1,23.8l-5.8-24.5l-6.4-24.5
	h-14.2l21.9,68.3H12l14.8-47.7l15.5,47.7h10.3l21-68.3H59.7z M117.7,287.1c0.9-11.9-8.1-22.3-20.1-23.1c-0.6,0-1.2-0.1-1.9-0.1
	c-12.5-0.3-22.9,9.6-23.2,22.2c0,0.3,0,0.7,0,1c0.1,12.9,10.6,23.3,23.6,23.2c0.3,0,0.6,0,0.9,0c6.7,0.1,13.2-1.9,18.7-5.8l-5.2-9
	c-3.1,3-7.3,4.6-11.6,4.5c-6,0.3-11.5-3.4-13.5-9h32.2C117.7,290.9,117.7,287.1,117.7,287.1z M95.8,274.2c5-0.3,9.2,3.4,9.7,8.4
	H84.8C85.8,277.4,90.5,273.8,95.8,274.2z M153.1,263.9c-5.1-0.1-10.1,2-13.5,5.8V240h-12.9v69H137l0.6-5.8c3.9,4.5,9.5,7.1,15.5,7.1
	c12.2-0.1,22-10,21.9-22.1c0-0.4,0-0.7,0-1.1c0.6-12.2-8.7-22.5-20.9-23.2C153.8,263.9,153.5,263.9,153.1,263.9z M150.5,298.7
	c-6.4,0-11.6-5.2-11.6-11.6s5.2-11.6,11.6-11.6c6.1,0,11,5,11,11.1c0,0.2,0,0.4,0,0.5c0.5,5.8-3.8,11-9.6,11.6
	C151.4,298.7,151,298.7,150.5,298.7z M209.8,263.9c-4.7-0.2-9.3,1.4-12.9,4.5V240h-12.9v69h12.9v-23.2c-0.4-5.7,4-10.6,9.6-10.9
	c0.2,0,0.4,0,0.7,0c5.4,0.1,9.8,4.5,9.7,10c0,0.3,0,0.6-0.1,1V309h12.9v-24.5c0.7-10.7-7.3-19.9-18-20.6
	C211.2,263.9,210.5,263.8,209.8,263.9z M284.6,287.1c0.9-11.9-8.1-22.3-20.1-23.1c-0.6,0-1.2-0.1-1.9-0.1
	c-12.5-0.3-22.9,9.6-23.2,22.2c0,0.3,0,0.7,0,1c0.1,12.9,10.6,23.3,23.6,23.2c0.3,0,0.6,0,0.9,0c6.7,0.1,13.2-1.9,18.7-5.8l-5.2-9
	c-3.1,3-7.3,4.6-11.6,4.5c-6,0.3-11.5-3.4-13.5-9h32.9C284,290.9,284.6,289,284.6,287.1z M262.7,274.2c5-0.3,9.2,3.4,9.7,8.4h-20.6
	C252.6,277.3,257.4,273.6,262.7,274.2z M293.6,309.6h12.9v-69h-12.9V309.6z M344.5,263.9c-5.7-0.2-11.1,2.2-14.8,6.4l-0.6-5.2h-11
	V329H331v-23.8c3.4,3.8,8.4,5.9,13.5,5.8c11.9-0.1,21.5-9.9,21.3-21.9c0-0.5,0-0.9-0.1-1.4c1-12.2-8.1-22.8-20.3-23.8
	C345.2,263.9,344.9,263.9,344.5,263.9z M342,298.7c-6.2,0.3-11.3-4.5-11.6-10.7c0-0.3,0-0.6,0-0.9c-0.4-6,4-11.2,10-11.6
	c0.5,0,1.1,0,1.6,0c6.4,0,11.6,5.2,11.6,11.6S348.4,298.7,342,298.7C342,298.7,342,298.7,342,298.7z"/>
</svg>
