<svg width="40" height="41" viewBox="0 0 40 41" fill="none" xmlns="http://www.w3.org/2000/svg">
<path d="M15.625 9.11523H6.25C5.66984 9.11523 5.11344 9.3457 4.7032 9.75594C4.29297 10.1662 4.0625 10.7226 4.0625 11.3027V21.3027C4.0625 21.8829 4.29297 22.4393 4.7032 22.8495C5.11344 23.2598 5.66984 23.4902 6.25 23.4902H15.9375V25.0527C15.9334 26.4604 15.3723 27.8093 14.377 28.8047C13.3816 29.8001 12.0327 30.3611 10.625 30.3652C10.3764 30.3652 10.1379 30.464 9.96209 30.6398C9.78627 30.8156 9.6875 31.0541 9.6875 31.3027C9.6875 31.5514 9.78627 31.7898 9.96209 31.9656C10.1379 32.1415 10.3764 32.2402 10.625 32.2402C12.5312 32.2402 14.3594 31.483 15.7073 30.1351C17.0552 28.7871 17.8125 26.959 17.8125 25.0527V11.3027C17.8125 10.7226 17.582 10.1662 17.1718 9.75594C16.7616 9.3457 16.2052 9.11523 15.625 9.11523ZM15.9375 21.6152H6.25C6.16712 21.6152 6.08763 21.5823 6.02903 21.5237C5.97042 21.4651 5.9375 21.3856 5.9375 21.3027V11.3027C5.9375 11.2199 5.97042 11.1404 6.02903 11.0818C6.08763 11.0232 6.16712 10.9902 6.25 10.9902H15.625C15.7079 10.9902 15.7874 11.0232 15.846 11.0818C15.9046 11.1404 15.9375 11.2199 15.9375 11.3027V21.6152ZM33.75 9.11523H24.375C23.7948 9.11523 23.2384 9.3457 22.8282 9.75594C22.418 10.1662 22.1875 10.7226 22.1875 11.3027V21.3027C22.1875 21.8829 22.418 22.4393 22.8282 22.8495C23.2384 23.2598 23.7948 23.4902 24.375 23.4902H34.0625V25.0527C34.0584 26.4604 33.4973 27.8093 32.502 28.8047C31.5066 29.8001 30.1577 30.3611 28.75 30.3652C28.5014 30.3652 28.2629 30.464 28.0871 30.6398C27.9113 30.8156 27.8125 31.0541 27.8125 31.3027C27.8125 31.5514 27.9113 31.7898 28.0871 31.9656C28.2629 32.1415 28.5014 32.2402 28.75 32.2402C30.6562 32.2402 32.4844 31.483 33.8323 30.1351C35.1802 28.7871 35.9375 26.959 35.9375 25.0527V11.3027C35.9375 10.7226 35.707 10.1662 35.2968 9.75594C34.8866 9.3457 34.3302 9.11523 33.75 9.11523ZM34.0625 21.6152H24.375C24.2921 21.6152 24.2126 21.5823 24.154 21.5237C24.0954 21.4651 24.0625 21.3856 24.0625 21.3027V11.3027C24.0625 11.2199 24.0954 11.1404 24.154 11.0818C24.2126 11.0232 24.2921 10.9902 24.375 10.9902H33.75C33.8329 10.9902 33.9124 11.0232 33.971 11.0818C34.0296 11.1404 34.0625 11.2199 34.0625 11.3027V21.6152Z" fill="#191919"/>
</svg>
