<svg width="1813" height="251" viewBox="0 0 1813 251" fill="none" xmlns="http://www.w3.org/2000/svg">
<path d="M162.683 95.616C162.683 120.272 145.755 130.024 85.9555 130.024C58.1715 130.024 23.3955 126.16 2.05147 121.56L4.62747 107.76C27.2595 112.544 62.4035 116.408 89.2675 116.408C137.659 116.408 146.675 110.336 146.675 95.248C146.675 79.056 137.291 76.48 118.891 74.272L46.5795 67.28C16.9555 64.704 0.21147 57.896 0.21147 34.896C0.21147 10.056 19.5315 0.487997 75.6515 0.487997C100.307 0.487997 135.083 3.984 157.163 8.58399L154.403 21.832C133.243 17.6 97.5475 14.104 72.7075 14.104C25.4195 14.104 16.0355 19.624 16.0355 34.528C16.0355 48.88 26.7075 51.456 45.8435 53.48L115.947 60.288C144.651 62.864 162.683 68.936 162.683 95.616ZM353.158 128L331.63 97.64H213.87L192.342 128H172.47L261.894 2.51199H283.606L373.214 128H353.158ZM222.518 85.312H322.982L272.75 14.104L222.518 85.312ZM404.439 128H387.879V2.51199H408.119L500.487 114.016L592.671 2.51199H612.727V128H596.167V22.2L508.583 128H492.023L404.439 22.2V128ZM808.306 128L786.778 97.64H669.018L647.49 128H627.618L717.042 2.51199H738.754L828.362 128H808.306ZM677.666 85.312H778.13L727.898 14.104L677.666 85.312ZM859.588 128H843.028V2.51199H862.164L999.06 110.152V2.51199H1015.62V128H996.3L859.588 19.808V128ZM1060.66 128H1044.1V2.51199H1060.66V55.32H1195.53V2.51199H1212.09V128H1195.53V69.672H1060.66V128ZM1407.56 128L1386.04 97.64H1268.28L1246.75 128H1226.88L1316.3 2.51199H1338.01L1427.62 128H1407.56ZM1276.92 85.312H1377.39L1327.16 14.104L1276.92 85.312ZM1458.85 113.464H1600.89V128H1442.29V2.51199H1458.85V113.464ZM1792.28 128L1770.75 97.64H1652.99L1631.46 128H1611.59L1701.01 2.51199H1722.72L1812.33 128H1792.28ZM1661.64 85.312H1762.1L1711.87 14.104L1661.64 85.312ZM609.717 217.628C609.717 195.548 623.517 185.336 654.705 185.336C669.149 185.336 685.341 187.912 697.117 190.856L695.461 197.94C684.881 195.548 669.333 192.604 654.153 192.604C627.013 192.604 617.997 200.792 617.997 217.628C617.997 234.464 627.013 242.652 654.153 242.652C666.481 242.652 679.361 240.444 688.561 238.604V216.616H697.117V244.492C685.341 247.436 669.149 250.012 654.705 250.012C623.517 250.012 609.717 239.8 609.717 217.628ZM793.919 249L783.155 233.82H724.275L713.511 249H703.575L748.287 186.256H759.143L803.947 249H793.919ZM728.599 227.656H778.831L753.715 192.052L728.599 227.656ZM819.56 249H811.28V186.256H870.528C885.892 186.256 893.804 192.236 893.804 206.22C893.804 219.284 886.72 225.724 872 226.092H863.812L869.7 230.416L892.148 249H881.476L854.428 226.46H819.56V249ZM819.56 193.432V219.928H870.16C880.924 219.928 885.34 216.064 885.34 206.68C885.34 197.204 880.924 193.432 870.16 193.432H819.56ZM961.237 249H907.233V186.256H961.237C986.169 186.256 998.221 194.996 998.221 217.536C998.221 240.26 986.077 249 961.237 249ZM915.513 193.432V241.732H960.593C981.845 241.732 989.665 234.832 989.665 217.536C989.665 200.148 981.845 193.432 960.593 193.432H915.513ZM1090.87 249H1010.64V186.256H1090.87V192.972H1018.92V213.948H1089.12V219.836H1018.92V242.192H1090.87V249ZM1112.54 249H1104.26V186.256H1113.83L1182.28 240.076V186.256H1190.56V249H1180.9L1112.54 194.904V249Z" fill="black"/>
</svg>
