<?xml version="1.0" encoding="UTF-8" standalone="no"?>
<!-- Created with Inkscape (http://www.inkscape.org/) -->

<svg
   xmlns:dc="http://purl.org/dc/elements/1.1/"
   xmlns:cc="http://creativecommons.org/ns#"
   xmlns:rdf="http://www.w3.org/1999/02/22-rdf-syntax-ns#"
   xmlns:svg="http://www.w3.org/2000/svg"
   xmlns="http://www.w3.org/2000/svg"
   xmlns:sodipodi="http://sodipodi.sourceforge.net/DTD/sodipodi-0.dtd"
   xmlns:inkscape="http://www.inkscape.org/namespaces/inkscape"
   version="1.1"
   id="svg2"
   xml:space="preserve"
   width="178.8564"
   height="71.187965"
   viewBox="0 0 178.8564 71.187965"
   sodipodi:docname="Logo ONCF.svg"
   inkscape:version="0.92.2 5c3e80d, 2017-08-06"><metadata
     id="metadata8"><rdf:RDF><cc:Work
         rdf:about=""><dc:format>image/svg+xml</dc:format><dc:type
           rdf:resource="http://purl.org/dc/dcmitype/StillImage" /><dc:title></dc:title></cc:Work></rdf:RDF></metadata><defs
     id="defs6"><clipPath
       clipPathUnits="userSpaceOnUse"
       id="clipPath80"><path
         d="m 421.094,501.732 h 138.181 v 57.543 H 421.094 Z"
         id="path78"
         inkscape:connector-curvature="0" /></clipPath></defs><sodipodi:namedview
     pagecolor="#ffffff"
     bordercolor="#666666"
     borderopacity="1"
     objecttolerance="10"
     gridtolerance="10"
     guidetolerance="10"
     inkscape:pageopacity="0"
     inkscape:pageshadow="2"
     inkscape:window-width="1280"
     inkscape:window-height="669"
     id="namedview4"
     showgrid="false"
     fit-margin-top="0"
     fit-margin-left="0"
     fit-margin-right="0"
     fit-margin-bottom="0"
     inkscape:zoom="6.7280601"
     inkscape:cx="91.809874"
     inkscape:cy="9.8663218"
     inkscape:window-x="0"
     inkscape:window-y="1"
     inkscape:window-maximized="1"
     inkscape:current-layer="g82" /><g
     id="g10"
     inkscape:groupmode="layer"
     inkscape:label="Plaquette Bilan carbone 2016"
     transform="matrix(1.3333333,0,0,-1.3333333,-566.78412,745.57928)"><g
       id="g74"><g
         id="g76"
         clip-path="url(#clipPath80)"><g
           id="g82"
           transform="translate(488.2733,522.5835)"><path
             d="m 0,0 c 2.893,0 5.052,-2.103 5.052,-5.138 0,-3.649 -2.66,-6.542 -6.017,-6.542 -3.065,0 -5.054,2.07 -5.054,5.286 C -6.019,-2.8 -3.447,0 0,0 m -1.288,-16.79 c 3.8,0 6.983,1.432 9.262,4.088 1.896,2.191 2.888,4.961 2.888,8.056 0,5.723 -4.176,9.749 -10.514,9.749 -3.767,0 -7.068,-1.457 -9.286,-4.056 -1.896,-2.215 -2.859,-4.961 -2.859,-8.056 0,-2.925 1.195,-5.606 3.185,-7.33 1.892,-1.64 4.319,-2.451 7.324,-2.451"
             style="fill:#f47216;fill-opacity:1;fill-rule:evenodd;stroke:none"
             id="path84"
             inkscape:connector-curvature="0" /></g><g
           id="g86"
           transform="translate(504.2455,527.2219)"><path
             d="m 0,0 h 6.368 l 4.406,-10.304 c 0.326,-0.789 0.848,-1.87 1.195,-3.412 v 0.523 c 0,0.932 0.12,1.923 0.268,2.944 L 13.845,0 H 19.42 L 16.117,-20.88 H 9.985 l -4.669,10.631 c -0.382,0.853 -0.873,1.957 -1.229,3.422 v -0.586 c 0,-1.018 -0.115,-1.983 -0.233,-2.891 L 2.276,-20.88 h -5.578 z"
             style="fill:#f47216;fill-opacity:1;fill-rule:evenodd;stroke:none"
             id="path88"
             inkscape:connector-curvature="0" /></g><g
           id="g90"
           transform="translate(542.6727,520.4803)"><path
             d="m 0,0 c -1.633,1.399 -3.562,2.103 -5.547,2.103 -3.443,0 -5.959,-2.658 -5.959,-6.423 0,-3.36 1.931,-5.32 5.404,-5.32 1.549,0 3.097,0.382 4.758,1.081 l -0.876,-5.397 c -1.43,-0.469 -3.149,-0.707 -5.135,-0.707 -6.017,0 -9.841,4.064 -9.841,10.107 0,2.977 0.962,5.696 2.712,7.855 2.076,2.54 5.257,3.942 9.167,3.942 2.486,0 4.528,-0.613 6.254,-1.492 z"
             style="fill:#f47216;fill-opacity:1;fill-rule:evenodd;stroke:none"
             id="path92"
             inkscape:connector-curvature="0" /></g><g
           id="g94"
           transform="translate(547.1694,527.2219)"><path
             d="M 0,0 H 12.061 L 11.305,-4.784 H 4.821 L 4.262,-8.236 h 6.077 L 9.61,-12.727 H 3.564 L 2.281,-20.88 h -5.577 z"
             style="fill:#f47216;fill-opacity:1;fill-rule:evenodd;stroke:none"
             id="path96"
             inkscape:connector-curvature="0" /></g><g
           id="g98"
           transform="translate(449.8932,525.5203)"><path
             d="m 0,0 -1.147,-0.519 c 6.474,3.022 12.774,7.425 17.588,12.163 0.283,0.317 0.852,0.944 1.13,1.26 2.377,2.39 5.297,5.424 7.5,7.973 1.109,1.265 2.236,1.992 2.238,1.992 0.323,0.283 0.711,0.522 0.52,0.134 -0.475,-0.704 -1.807,-2.36 -1.687,-2.46 0.033,-0.026 0.305,0.301 0.569,0.635 0.132,-0.109 1.191,0.689 1.452,1.032 0.335,0.28 2.066,2.204 2.364,2.535 0.853,1.009 -0.861,-2.586 -1.883,-4.006 -0.478,-0.734 0.164,-0.13 0.26,-0.206 -0.579,-0.656 -0.752,-1.078 -1.346,-1.722 0.042,-0.035 -1.628,-2.058 -2.514,-3.024 0,0 -0.325,-0.294 -1.215,-1.257 -0.302,-0.315 -0.332,-0.286 -0.362,-0.257 l 0.06,-0.058 C 23.163,13.959 22.625,13.266 22.284,12.99 l 0.058,-0.059 c -0.675,-0.561 -1.233,-1.24 -1.899,-1.81 l 0.057,-0.06 c -0.317,-0.303 -0.631,-0.605 -0.603,-0.635 l 0.056,-0.061 C 19.663,10.037 18.957,9.508 19.013,9.446 L 18.957,9.507 C 17.662,8.328 16.689,7.442 15.695,6.577 13.097,4.202 9.442,1.692 5.949,-0.208 5.568,-0.433 5.147,-0.581 5.486,-0.288 L 4.327,-0.926 C 3.549,-1.34 3.881,-1.023 3.104,-1.437 c -6.325,-3.037 -13.183,-5.344 -20.306,-5.586 1.767,0.172 3.076,0.368 4.826,0.609 -0.006,0.042 -0.019,0.123 0.419,0.187 2.593,0.494 5.593,1.229 6.784,1.824 0.406,0.169 0.787,0.412 2.01,0.878 l -1.228,-0.456 c -0.014,0.04 -0.04,0.118 -0.04,0.118 1.628,0.625 3.637,1.462 5.185,2.249 0,0 -0.035,0.075 -0.052,0.112 l 0.782,0.376 c 0.656,0.622 -3.603,-1.481 -5.688,-2.078 l -0.055,0.157 0.805,0.299 -0.029,0.078 c -2.408,-0.908 -4.476,-1.504 -6.995,-2.038 0.424,0.075 1.261,0.258 1.674,0.382 -0.01,0.039 -0.02,0.081 0.393,0.188 -1.648,-0.457 -3.755,-0.887 -5.465,-1.025 -0.428,-0.018 -0.019,0.165 1.237,0.386 1.262,0.203 2.095,0.387 3.341,0.664 l -0.019,0.082 c -0.823,-0.203 -2.072,-0.477 -2.912,-0.604 -0.426,-0.035 0.813,0.278 0.385,0.243 -0.41,-0.097 -0.837,-0.132 -1.26,-0.158 1.257,0.164 2.929,0.476 4.149,0.827 0.401,0.146 0.8,0.293 0.778,0.374 2.05,0.5 3.61,1.191 4.712,1.834 C -3.095,-1.312 -1.139,-0.539 0,0"
             style="fill:#f47216;fill-opacity:1;fill-rule:evenodd;stroke:none"
             id="path100"
             inkscape:connector-curvature="0" /></g><g
           id="g102"
           transform="translate(451.7101,519.7077)"><path
             d="m 0,0 c -0.59,-0.284 -1.162,-0.535 -1.758,-0.784 9.99,4.544 19.765,11.232 27.356,18.302 0.46,0.46 1.378,1.382 1.819,1.854 3.753,3.567 8.286,8.205 11.507,12.189 1.622,1.977 3.004,3.323 3.01,3.325 0.398,0.486 0.878,0.942 0.613,0.36 -0.593,-1.122 -2.527,-3.717 -2.409,-3.809 0.03,-0.024 0.428,0.488 0.812,1.01 0.139,-0.106 1.541,1.296 1.89,1.856 0.418,0.474 2.785,3.726 2.2,4.788 -0.212,0.447 -0.159,0.477 0.064,0.236 0.318,-0.216 0.492,-1.322 0.238,-2.08 -0.403,-1.677 -1.456,-3.623 -2.173,-4.761 -0.713,-1.143 0.173,-0.124 0.273,-0.19 -0.814,-1.082 -1.118,-1.695 -1.975,-2.73 0.046,-0.039 -2.46,-3.183 -3.824,-4.641 -0.006,0.005 -0.465,-0.478 -1.842,-1.927 -0.455,-0.483 -0.487,-0.453 -0.517,-0.424 l 0.059,-0.058 c -0.528,-0.415 -1.385,-1.433 -1.896,-1.864 l 0.059,-0.059 c -0.999,-0.881 -1.905,-1.857 -2.9,-2.741 l 0.056,-0.061 C 30.173,17.342 29.683,16.893 29.71,16.862 l 0.058,-0.06 C 29.312,16.317 28.257,15.495 28.31,15.435 l -0.054,0.062 C 26.268,13.728 24.749,12.437 23.22,11.149 19.164,7.689 13.646,3.899 8.368,1.012 7.793,0.67 7.159,0.437 7.706,0.825 L 5.948,-0.136 C 4.773,-0.769 5.3,-0.336 4.116,-0.948 c -9.725,-4.43 -19.74,-8.255 -30.738,-8.675 2.752,0.083 4.747,0.451 7.393,0.88 -0.008,0.042 -0.022,0.123 0.64,0.244 3.927,0.813 8.401,2.099 10.228,2.901 0.615,0.256 1.208,0.574 3.073,1.249 l -1.87,-0.665 c -0.013,0.04 -0.04,0.117 -0.04,0.117 2.484,0.908 5.557,2.111 7.946,3.279 0,0 -0.036,0.075 -0.052,0.113 l 1.193,0.565 c 1.089,0.772 -5.479,-2.299 -8.646,-3.231 l -0.053,0.158 1.237,0.442 -0.029,0.08 c -3.702,-1.341 -6.835,-2.331 -10.662,-3.264 0.64,0.156 1.913,0.47 2.543,0.656 -0.01,0.04 -0.022,0.08 0.61,0.253 -2.519,-0.721 -5.711,-1.502 -8.317,-1.795 -0.656,-0.032 -0.015,0.12 1.896,0.529 1.926,0.361 3.194,0.667 5.091,1.158 l -0.02,0.081 c -1.258,-0.341 -3.156,-0.826 -4.442,-1.039 -0.65,-0.092 1.249,0.386 0.6,0.295 -0.63,-0.149 -1.276,-0.244 -1.919,-0.326 1.916,0.313 4.464,0.884 6.336,1.442 0.619,0.213 1.235,0.427 1.21,0.51 3.134,0.874 5.557,1.865 7.312,2.738 C -4.782,-1.957 -1.724,-0.835 0,0"
             style="fill:#f47216;fill-opacity:1;fill-rule:evenodd;stroke:none"
             id="path104"
             inkscape:connector-curvature="0" /></g><g
           id="g106"
           transform="translate(447.9519,533.147)"><path
             d="m 0,0 -0.555,-0.296 c 3.062,1.84 6.333,3.829 8.778,6.107 0.143,0.157 0.409,0.484 0.543,0.645 1.194,1.125 2.732,2.479 3.648,3.601 0.465,0.542 1.051,0.758 1.057,0.768 0.165,0.112 0.341,0.201 0.376,0.019 -0.084,-0.333 -0.591,-1.147 -0.478,-1.24 0.038,-0.026 0.15,0.138 0.252,0.305 0.146,-0.101 0.744,0.259 0.827,0.461 0.222,0.105 0.77,1.303 0.731,1.616 0.149,0.873 0.872,-1.651 0.203,-2.616 C 15.197,8.907 15.564,9.258 15.672,9.208 15.37,8.8 15.347,8.498 15.017,8.139 15.06,8.099 14.192,6.943 13.702,6.468 c 0,-0.002 -0.186,-0.145 -0.679,-0.62 -0.162,-0.16 -0.19,-0.13 -0.219,-0.1 l 0.057,-0.06 C 12.641,5.591 12.363,5.231 12.168,5.107 L 12.224,5.046 C 11.834,4.805 11.545,4.457 11.178,4.197 L 11.232,4.133 C 11.059,3.992 10.885,3.852 10.911,3.82 L 10.964,3.756 C 10.816,3.583 10.418,3.364 10.468,3.302 L 10.417,3.367 C 9.715,2.818 9.206,2.389 8.693,1.963 7.352,0.788 5.452,-0.355 3.703,-1.293 3.512,-1.403 3.279,-1.442 3.428,-1.26 L 2.856,-1.591 c -0.381,-0.22 -0.25,-0.003 -0.635,-0.217 -3.257,-1.445 -6.04,-3.42 -10.2,-3.834 1.109,0.11 1.742,0.385 2.641,0.612 -0.012,0.039 -0.037,0.119 0.184,0.186 1.282,0.461 2.728,1.009 3.258,1.439 0.185,0.127 0.329,0.335 0.919,0.62 l -0.59,-0.284 c -0.019,0.037 -0.053,0.112 -0.053,0.112 0.77,0.41 1.722,0.937 2.465,1.387 0,0 -0.04,0.072 -0.06,0.109 l 0.383,0.206 c 0.242,0.453 -1.825,-0.707 -2.824,-1.121 l -0.072,0.149 0.387,0.187 -0.036,0.074 c -1.157,-0.563 -2.137,-1.003 -3.342,-1.454 0.201,0.077 0.6,0.233 0.801,0.311 -0.016,0.039 -0.031,0.075 0.165,0.159 -0.788,-0.325 -1.783,-0.736 -2.626,-0.873 -0.217,-0.007 -0.039,0.147 0.547,0.376 0.603,0.191 1,0.336 1.591,0.568 l -0.03,0.078 c -0.392,-0.16 -0.972,-0.413 -1.384,-0.505 -0.212,-0.028 0.357,0.251 0.144,0.223 -0.194,-0.072 -0.394,-0.124 -0.603,-0.147 0.591,0.166 1.391,0.429 1.962,0.698 0.179,0.117 0.356,0.24 0.324,0.315 0.983,0.365 1.693,0.852 2.168,1.31 C -1.509,-0.738 -0.553,-0.303 0,0"
             style="fill:#f47216;fill-opacity:1;fill-rule:evenodd;stroke:none"
             id="path108"
             inkscape:connector-curvature="0" /></g></g></g></g></svg>