<svg width="170" height="28" viewBox="0 0 170 28" fill="none" xmlns="http://www.w3.org/2000/svg">
<path d="M2.25 24.75V22.5C2.25 22.5 7.875 20.25 13.5 20.25C19.125 20.25 24.75 22.5 24.75 22.5V24.75H2.25ZM12.7125 10.2375C11.3625 5.84998 4.5 6.86248 4.5 6.86248C4.5 6.86248 4.725 15.6375 11.1375 14.2875C10.6875 11.025 9 10.125 9 10.125C12.15 10.125 12.375 13.95 12.375 13.95V19.125C12.7125 19.125 13.1625 19.125 13.5 19.125C13.8375 19.125 14.2875 19.125 14.625 19.125V14.4C14.625 14.4 14.625 10.0125 18 8.88748C18 8.88748 15.75 12.2625 15.75 14.5125C23.625 15.3 23.625 4.49998 23.625 4.49998C23.625 4.49998 13.6125 3.37498 12.7125 10.2375Z" fill="#D0F759"/>
<path d="M41.0286 11.284C41.0286 13.3 39.6566 14.182 34.9386 14.182C32.5586 14.182 29.8006 13.846 28.0786 13.426L28.4846 11.144C30.4446 11.578 32.8246 11.956 35.6946 11.956C37.9346 11.956 38.3406 11.774 38.3406 11.2C38.3406 10.612 37.9906 10.542 37.2486 10.472L31.9706 10.164C29.0026 10.024 27.9246 9.072 27.9246 7.294C27.9246 5.152 29.8006 4.284 34.2246 4.284C35.9186 4.284 38.6766 4.55 40.5666 4.956L40.1046 7.098C38.4806 6.776 35.9606 6.51 33.5666 6.51C30.9906 6.51 30.6126 6.65 30.6126 7.224C30.6126 7.756 30.9766 7.84 31.8446 7.896L37.0526 8.204C39.7966 8.358 41.0286 9.31 41.0286 11.284ZM53.8562 14L52.7082 12.152H45.6522L44.4902 14H41.0742L47.3042 4.452H51.0842L57.3002 14H53.8562ZM46.8842 10.178H51.4622L49.1802 6.51L46.8842 10.178ZM60.7406 14H57.8986V4.452H61.3566L67.0686 11.662L72.7666 4.452H76.1686V14H73.3266V7.826L68.4686 14H65.5986L60.7406 7.826V14ZM89.5398 14L88.3918 12.152H81.3358L80.1738 14H76.7578L82.9878 4.452H86.7678L92.9838 14H89.5398ZM82.5678 10.178H87.1458L84.8638 6.51L82.5678 10.178ZM96.4242 14H93.5822V4.452H96.8302L105.034 10.906V4.452H107.876V14H104.698L96.4242 7.434V14ZM112.229 14H109.387V4.452H112.229V7.896H120.489V4.452H123.331V14H120.489V10.318H112.229V14ZM136.694 14L135.546 12.152H128.49L127.328 14H123.912L130.142 4.452H133.922L140.138 14H136.694ZM129.722 10.178H134.3L132.018 6.51L129.722 10.178ZM143.578 11.564H153.056V14H140.736V4.452H143.578V11.564ZM166.321 14L165.173 12.152H158.117L156.955 14H153.539L159.769 4.452H163.549L169.765 14H166.321ZM159.349 10.178H163.927L161.645 6.51L159.349 10.178ZM66.6321 23.59C66.6321 21.22 68.1221 20.08 71.6621 20.08C73.2421 20.08 74.9721 20.35 76.2621 20.67L76.0321 21.7C74.8721 21.45 73.2121 21.14 71.5821 21.14C68.7321 21.14 67.8521 21.93 67.8521 23.59C67.8521 25.25 68.7321 26.05 71.5821 26.05C72.8021 26.05 74.0721 25.85 75.0021 25.67V23.49H76.2621V26.52C74.9721 26.84 73.2421 27.11 71.6621 27.11C68.1221 27.11 66.6321 25.97 66.6321 23.59ZM86.484 27L85.414 25.44H79.394L78.334 27H76.864L81.604 20.18H83.214L87.964 27H86.484ZM79.994 24.56H84.814L82.404 21.03L79.994 24.56ZM89.8782 27H88.6582V20.18H95.2082C96.8782 20.18 97.8282 20.82 97.8282 22.41C97.8282 23.85 97.0282 24.56 95.4482 24.62L94.6882 24.63L95.2982 25.05L97.6882 27H96.1282L93.3282 24.68H89.8782V27ZM89.8782 21.23V23.74H95.1282C96.1582 23.74 96.5782 23.38 96.5782 22.49C96.5782 21.58 96.1582 21.23 95.1282 21.23H89.8782ZM105.217 27H99.127V20.18H105.217C107.827 20.18 109.207 21.09 109.207 23.58C109.207 26.1 107.817 27 105.217 27ZM100.347 21.23V25.95H105.107C107.167 25.95 107.947 25.31 107.947 23.58C107.947 21.85 107.167 21.23 105.107 21.23H100.347ZM119.246 27H110.416V20.18H119.246V21.16H111.636V23.11H119.056V23.94H111.636V26.02H119.246V27ZM121.783 27H120.563V20.18H121.963L128.953 25.68V20.18H130.173V27H128.783L121.783 21.46V27Z" fill="white"/>
</svg>
